<?xml version="1.0" encoding="UTF-8"?>
<svg version="1.1" xmlns="http://www.w3.org/2000/svg" width="512" height="512">
<path d="M0 0 C0.74698179 -0.00265183 1.49396358 -0.00530365 2.26358119 -0.00803584 C4.78067094 -0.0157295 7.29771192 -0.01628804 9.81481266 -0.01688576 C11.63216259 -0.02090035 13.44951163 -0.02533857 15.26685959 -0.03016531 C20.27221919 -0.04213726 25.27756915 -0.04778072 30.28294027 -0.05234647 C35.6771768 -0.05830028 41.07140178 -0.06991075 46.46563053 -0.08063698 C59.4993609 -0.10516713 72.5330951 -0.11978959 85.56684145 -0.13269705 C89.24805315 -0.13640871 92.92926446 -0.14038197 96.61047578 -0.14444971 C119.46869421 -0.16968734 142.32691323 -0.19174121 165.18514252 -0.20417786 C170.48064965 -0.20710757 175.77615677 -0.21006923 181.07166386 -0.21308327 C182.38784354 -0.21382932 183.70402323 -0.21457537 185.06008715 -0.21534403 C206.37770006 -0.22799552 227.69521259 -0.26121535 249.01278996 -0.3028851 C270.89793009 -0.34531362 292.78302751 -0.36887401 314.66820866 -0.37409842 C326.95633484 -0.37751162 339.24433065 -0.38925614 351.53241634 -0.42220116 C361.99859391 -0.45021543 372.46461439 -0.4611949 382.93082654 -0.4500057 C388.26916785 -0.44482253 393.60718024 -0.44768392 398.94547367 -0.47247124 C403.83808051 -0.494999 408.73012283 -0.49419628 413.6227398 -0.47526737 C415.387316 -0.47247231 417.15193077 -0.47803823 418.91644507 -0.4930803 C434.69485853 -0.61930104 446.57050812 2.60746298 458.31311893 13.71904564 C465.86785086 21.72160962 469.79695422 31.64924155 469.77825832 42.49577045 C469.78091015 43.24275225 469.78356198 43.98973404 469.78629416 44.75935164 C469.79398782 47.2764414 469.79454636 49.79348238 469.79514408 52.31058311 C469.79915867 54.12793305 469.80359689 55.94528209 469.80842364 57.76263005 C469.82039558 62.76798965 469.82603904 67.77333961 469.83060479 72.77871072 C469.8365586 78.17294725 469.84816907 83.56717224 469.8588953 88.96140099 C469.88342545 101.99513136 469.89804792 115.02886555 469.91095537 128.06261191 C469.91466703 131.7438236 469.91864029 135.42503492 469.92270803 139.10624623 C469.94794567 161.96446466 469.96999954 184.82268368 469.98243618 207.68091297 C469.9853659 212.97642011 469.98832756 218.27192722 469.99134159 223.56743431 C469.99208764 224.883614 469.99283369 226.19979369 469.99360235 227.55585761 C470.00625384 248.87347051 470.03947367 270.19098305 470.08114342 291.50856041 C470.12357194 313.39370054 470.14713234 335.27879796 470.15235674 357.16397911 C470.15576994 369.45210529 470.16751446 381.7401011 470.20045948 394.0281868 C470.22847375 404.49436437 470.23945322 414.96038484 470.22826402 425.42659699 C470.22308086 430.7649383 470.22594225 436.10295069 470.25072956 441.44124413 C470.27325733 446.33385097 470.2724546 451.22589328 470.25352569 456.11851025 C470.25073064 457.88308645 470.25629655 459.64770122 470.27133863 461.41221552 C470.39755937 477.19062899 467.17079535 489.06627858 456.05921268 500.80888939 C448.05664871 508.36362132 438.12901678 512.29272467 427.28248787 512.27402878 C426.53550608 512.2766806 425.78852429 512.27933243 425.01890668 512.28206462 C422.50181692 512.28975827 419.98477595 512.29031682 417.46767521 512.29091454 C415.65032528 512.29492913 413.83297624 512.29936734 412.01562828 512.30419409 C407.01026868 512.31616603 402.00491872 512.3218095 396.9995476 512.32637525 C391.60531107 512.33232905 386.21108609 512.34393953 380.81685734 512.35466576 C367.78312697 512.37919591 354.74939277 512.39381837 341.71564642 512.40672582 C338.03443472 512.41043749 334.35322341 512.41441075 330.67201209 512.41847849 C307.81379366 512.44371612 284.95557464 512.46576999 262.09734535 512.47820663 C256.80183822 512.48113635 251.5063311 512.48409801 246.21082401 512.48711205 C244.23655448 512.48823112 244.23655448 512.48823112 242.22240072 512.4893728 C220.90478781 512.5020243 199.58727528 512.53524413 178.26969791 512.57691388 C156.38455778 512.61934239 134.49946036 512.64290279 112.61427921 512.6481272 C100.32615303 512.6515404 88.03815722 512.66328492 75.75007153 512.69622993 C65.28389396 512.72424421 54.81787348 512.73522368 44.35166133 512.72403447 C39.01332002 512.71885131 33.67530763 512.7217127 28.3370142 512.74650002 C23.44440736 512.76902778 18.55236504 512.76822506 13.65974807 512.74929614 C11.89517187 512.74650109 10.1305571 512.75206701 8.3660428 512.76710908 C-7.41237067 512.89332982 -19.28802025 509.6665658 -31.03063107 498.55498314 C-38.58536299 490.55241916 -42.51446635 480.62478723 -42.49577045 469.77825832 C-42.49842228 469.03127653 -42.50107411 468.28429474 -42.50380629 467.51467714 C-42.51149995 464.99758738 -42.51205849 462.4805464 -42.51265621 459.96344566 C-42.5166708 458.14609573 -42.52110902 456.32874669 -42.52593577 454.51139873 C-42.53790771 449.50603913 -42.54355117 444.50068917 -42.54811692 439.49531806 C-42.55407073 434.10108153 -42.5656812 428.70685654 -42.57640743 423.31262779 C-42.60093758 410.27889742 -42.61556005 397.24516323 -42.6284675 384.21141687 C-42.63217916 380.53020518 -42.63615242 376.84899386 -42.64022017 373.16778255 C-42.6654578 350.30956412 -42.68751167 327.45134509 -42.69994831 304.59311581 C-42.70287803 299.29760867 -42.70583969 294.00210156 -42.70885372 288.70659447 C-42.7099728 286.73232494 -42.7099728 286.73232494 -42.71111448 284.71817117 C-42.72376597 263.40055827 -42.7569858 242.08304573 -42.79865555 220.76546837 C-42.84108407 198.88032824 -42.86464447 176.99523081 -42.86986887 155.11004966 C-42.87328207 142.82192348 -42.88502659 130.53392768 -42.91797161 118.24584198 C-42.94598589 107.77966441 -42.95696535 97.31364394 -42.94577615 86.84743179 C-42.94059299 81.50909048 -42.94345438 76.17107809 -42.96824169 70.83278465 C-42.99076946 65.94017781 -42.98996673 61.0481355 -42.97103782 56.15551852 C-42.96824277 54.39094232 -42.97380868 52.62632755 -42.98885076 50.86181325 C-43.1150715 35.08339979 -39.88830748 23.2077502 -28.77672482 11.46513939 C-20.77416084 3.91040746 -10.84652891 -0.0186959 0 0 Z M52.20374393 126.38701439 C48.56536223 132.79056619 48.35196063 138.85020193 48.38727665 146.04302025 C48.38415667 147.02411483 48.38103669 148.00520941 48.37782216 149.01603413 C48.36986197 152.29470373 48.37615816 155.57318724 48.38245487 158.85185814 C48.37974414 161.20603608 48.37618274 163.56021317 48.37183475 165.91438866 C48.36271836 172.30269132 48.36625197 178.69092938 48.37259293 185.07923317 C48.3771434 191.087291 48.37366975 197.09534292 48.37073854 203.10340059 C48.36503932 215.7279665 48.37158672 228.35250334 48.38233927 240.97706449 C48.39127441 251.80285662 48.38972226 262.62860585 48.38050175 273.4543972 C48.3697919 286.03466466 48.36558861 298.61490665 48.37172627 311.19517803 C48.37488569 317.85140687 48.37526019 324.50761181 48.3686533 331.16383934 C48.3628758 337.42157876 48.36688425 343.67923718 48.37844181 349.93696785 C48.38108621 352.23353885 48.38032705 354.53011667 48.37591648 356.82668495 C48.37045105 359.9615515 48.37730751 363.09615851 48.38727665 366.23100853 C48.38281521 367.13967139 48.37835376 368.04833426 48.37375712 368.98453236 C48.41360987 375.44621885 48.68387058 380.87850667 53.07874393 385.94951439 C57.69216776 389.88780302 60.23142806 390.58247319 66.13343143 390.45342064 C69.83346307 389.98659422 71.89938091 388.61137859 74.64124393 386.13701439 C78.02870653 381.58146124 78.76818265 377.13084571 78.76149845 371.54953575 C78.76287312 370.65917625 78.76424778 369.76881676 78.7656641 368.85147667 C78.76206882 367.8876255 78.75847355 366.92377434 78.75476933 365.93071556 C78.75491535 364.90586052 78.75506138 363.88100548 78.75521183 362.82509422 C78.75451612 359.44336887 78.74673964 356.06169885 78.73890018 352.67998314 C78.73703479 350.33300367 78.73561146 347.98602381 78.73461246 345.63904381 C78.73079683 339.46591171 78.72097465 333.29280319 78.70990849 327.1196804 C78.6996739 320.81882102 78.69511045 314.51795782 78.69007206 308.21709251 C78.67935155 295.85705612 78.66228654 283.49703722 78.64124393 271.13701439 C79.55784794 271.14145561 80.47445194 271.14589684 81.41883183 271.15047264 C90.12579364 271.19081757 98.83272334 271.22113359 107.53975773 271.24063873 C112.01438278 271.25100411 116.48892954 271.26502807 120.96350956 271.2878933 C125.29480586 271.30988372 129.62602764 271.32163722 133.95737553 271.32676888 C135.59648655 271.33041826 137.23559426 271.33754184 138.87467289 271.3484745 C164.18135924 271.51030669 186.98270766 267.58105367 206.19788456 249.5715847 C214.70805253 241.11323779 220.28922564 231.23466104 224.64124393 220.13701439 C225.18265018 218.76416283 225.18265018 218.76416283 225.73499393 217.36357689 C231.43441171 199.36819298 228.49457149 177.95070488 220.01624393 161.44951439 C210.59190196 144.26133093 195.48418192 130.89474424 176.73108768 124.78154564 C162.60599525 120.80122966 148.52934311 120.96225984 133.97718143 120.93388939 C132.99453941 120.93106201 132.01189739 120.92823463 130.99947834 120.92532158 C125.80844963 120.91041363 120.61744815 120.90112877 115.42640018 120.89678001 C110.08591349 120.8912795 104.74567967 120.86719415 99.40527248 120.83880806 C95.27530026 120.82014147 91.14538883 120.81497414 87.015378 120.81344414 C85.04671298 120.8104308 83.07804869 120.8024472 81.10942554 120.78925896 C78.35339793 120.772099 75.59798768 120.77410181 72.84192753 120.78056908 C72.0406493 120.77135429 71.23937107 120.76213951 70.41381168 120.75264549 C63.80037292 120.80097012 57.19170633 121.78274141 52.20374393 126.38701439 Z M300.83265018 135.71513939 C289.99237303 147.69548135 288.45839213 161.37859871 288.54358768 176.85967064 C288.54571011 178.33880188 288.54571011 178.33880188 288.5478754 179.84781456 C288.55342624 182.96508007 288.56596933 186.08227097 288.57874393 189.19951439 C288.5837653 191.32646647 288.58832709 193.45341969 288.59241581 195.58037376 C288.60337952 200.76594893 288.62060969 205.95146905 288.64124393 211.13701439 C287.61861454 211.12323753 286.59598515 211.10946068 285.54236698 211.09526634 C284.18340147 211.08412247 282.82443316 211.0733168 281.46546268 211.06279564 C280.45751652 211.04787071 280.45751652 211.04787071 279.4292078 211.03264427 C274.08471067 211.00165695 269.33390996 211.45850389 264.64124393 214.13701439 C260.04975505 218.8432905 259.28625213 222.20616163 259.35999393 228.59404564 C259.77305638 232.32881857 261.14998726 234.37643267 263.64124393 237.13701439 C269.18840025 241.26182293 274.74879716 241.28292521 281.45374393 241.19951439 C282.49305058 241.19274681 282.49305058 241.19274681 283.55335331 241.18584251 C285.24935462 241.17414595 286.94531097 241.15621363 288.64124393 241.13701439 C288.63847856 242.17096635 288.63847856 242.17096635 288.63565731 243.22580624 C288.59145775 260.01045276 288.55837738 276.79508082 288.53761959 293.579772 C288.52731406 301.69677447 288.51326755 309.81373805 288.49036503 317.93071556 C288.47040901 325.00679264 288.45752224 332.08284154 288.45306695 339.15894598 C288.45046331 342.90448427 288.44435871 346.64994198 288.42978382 350.39545441 C288.41363212 354.58025856 288.41326567 358.76492329 288.41419315 362.94975853 C288.4070026 364.1869413 288.39981205 365.42412407 288.3924036 366.69879723 C288.26524546 377.09529196 288.26524546 377.09529196 293.07874393 385.94951439 C297.69216776 389.88780302 300.23142806 390.58247319 306.13343143 390.45342064 C309.83346307 389.98659422 311.89938091 388.61137859 314.64124393 386.13701439 C318.31444981 381.1971858 318.76710058 376.43290605 318.76149845 370.41061974 C318.76287312 369.26783562 318.76424778 368.1250515 318.7656641 366.94763756 C318.76206882 365.70326424 318.75847355 364.45889091 318.75476933 363.17680931 C318.75491535 361.85934715 318.75506138 360.54188499 318.75521183 359.18449974 C318.75549838 355.5795252 318.74962468 351.97458402 318.74263787 348.36961722 C318.73638061 344.59932039 318.73579866 340.82902277 318.73461246 337.05872154 C318.73150615 329.92256328 318.72330218 322.78642036 318.71326298 315.65026885 C318.70208012 307.52455388 318.69658591 299.39883817 318.69156754 291.27311742 C318.68111899 274.5610741 318.66353309 257.8490462 318.64124393 241.13701439 C319.18946308 241.14145561 319.73768223 241.14589684 320.30251408 241.15047264 C326.02924832 241.19485875 331.75593336 241.22494407 337.48279667 241.24687767 C339.6175825 241.25691001 341.75235468 241.27053903 343.88709354 241.2878933 C346.96273013 241.31226329 350.03818436 241.32352539 353.11390018 241.33232689 C354.06209126 241.34264946 355.01028233 241.35297203 355.98720646 241.36360741 C362.64364248 241.36472416 368.22212169 241.233587 373.45374393 236.69951439 C377.39203257 232.08609056 378.08670274 229.54683026 377.95765018 223.64482689 C377.49082376 219.94479526 376.11560813 217.87887742 373.64124393 215.13701439 C369.04647619 211.72039222 364.56919109 211.00763989 358.94275761 211.023489 C358.04220142 211.02356453 357.14164524 211.02364006 356.21379948 211.02371788 C355.25528584 211.02887917 354.29677219 211.03404045 353.30921268 211.03935814 C351.82159176 211.04148056 351.82159176 211.04148056 350.30391788 211.04364586 C347.14549551 211.04923021 343.98714478 211.06177987 340.82874393 211.07451439 C338.68356267 211.07953141 336.53838029 211.08409396 334.39319706 211.08818626 C329.14252169 211.09919451 323.89188793 211.11591709 318.64124393 211.13701439 C318.70825662 203.96504686 318.79806871 196.7936239 318.90369511 189.62212181 C318.9369381 187.18273456 318.96497195 184.74327051 318.98767948 182.30376244 C319.02123611 178.79602407 319.07355442 175.28898914 319.12952518 171.78154564 C319.13591511 170.69178932 319.14230503 169.602033 319.14888859 168.47925377 C319.33710949 158.77369164 319.33710949 158.77369164 322.64124393 155.13701439 C326.7273593 151.79170762 330.67609473 151.69640389 335.75843143 151.69560814 C336.5338126 151.68240028 337.30919376 151.66919243 338.10807133 151.65558434 C340.57749868 151.61484162 343.04655765 151.5930744 345.51624393 151.57451439 C347.97867409 151.55061902 350.44076287 151.52230251 352.9029932 151.48273277 C354.43109113 151.45864805 355.95936771 151.44356906 357.48764896 151.43912315 C363.51098068 151.3519777 368.74994414 150.77614087 373.45374393 146.69951439 C377.39203257 142.08609056 378.08670274 139.54683026 377.95765018 133.64482689 C377.49082376 129.94479526 376.11560813 127.87887742 373.64124393 125.13701439 C366.91514867 120.13555894 359.19107344 120.9507371 351.16077518 120.95171165 C349.17505605 120.94955118 347.18937606 120.93111881 345.20374393 120.91240501 C327.73538173 120.88620247 313.81947993 123.29114175 300.83265018 135.71513939 Z " fill="#000000" transform="translate(42.35875606536865,-0.13701438903808594)"/>
<path d="M0 0 C20.6353125 -0.1546875 20.6353125 -0.1546875 41.6875 -0.3125 C46.00674561 -0.35802002 50.32599121 -0.40354004 54.77612305 -0.45043945 C60.11291504 -0.47302246 60.11291504 -0.47302246 62.62336731 -0.47721863 C64.35036185 -0.48482007 66.07733242 -0.50224413 67.80415344 -0.52787781 C84.33636438 -0.76069418 96.26540486 1.84226394 108.671875 13.58203125 C118.61297231 24.11242041 120.56961837 36.06420358 120.33984375 49.859375 C119.79526852 62.19705449 113.60027981 71.89149375 104.8125 80.1875 C96.39125834 87.03932844 87.40905926 90.16260602 76.74316406 90.11352539 C75.90014614 90.11364593 75.05712822 90.11376646 74.1885643 90.11389065 C71.46422421 90.11314525 68.73995283 90.10553398 66.015625 90.09765625 C64.33186882 90.09618568 62.64811219 90.09516568 60.96435547 90.09460449 C54.72623 90.08936499 48.48811432 90.07540377 42.25 90.0625 C28.3075 90.041875 14.365 90.02125 0 90 C0 60.3 0 30.6 0 0 Z " fill="#000000" transform="translate(121,151)"/>
</svg>
